<?xml version="1.0" standalone="no"?><!DOCTYPE svg PUBLIC "-//W3C//DTD SVG 1.1//EN" "http://www.w3.org/Graphics/SVG/1.1/DTD/svg11.dtd"><svg class="icon" width="48px" height="48.00px" viewBox="0 0 1024 1024" version="1.1" xmlns="http://www.w3.org/2000/svg"><path fill="#EE8033" d="M538.74176 113.65376V34.56a34.56 34.56 0 1 0-69.12 0v79.09376c-232.576 17.71008-416.40448 212.61312-416.40448 449.64864 0 248.66304 202.30144 450.96448 450.96448 450.96448s450.9696-202.30144 450.9696-450.96448c-0.00512-237.0304-183.8336-431.93856-416.4096-449.64864zM504.17664 945.152c-210.54976 0-381.84448-171.29472-381.84448-381.84448 0-210.54976 171.29472-381.84448 381.84448-381.84448 210.55488 0 381.8496 171.29472 381.8496 381.84448 0 210.54976-171.29472 381.84448-381.8496 381.84448zM645.08928 639.07328l-106.34752-78.26944V349.06624a34.56 34.56 0 1 0-69.12 0v231.33696a34.56 34.56 0 0 0 23.68512 32.78848l110.81728 81.55648a34.38592 34.38592 0 0 0 20.4544 6.72256 34.56 34.56 0 0 0 20.51072-62.39744zM678.59968 107.136l102.39488 56.576a34.55488 34.55488 0 0 0 46.96576-13.53728 34.56 34.56 0 0 0-13.53728-46.96576l-102.39488-56.576a34.56512 34.56512 0 0 0-33.42848 60.50304z" /></svg>