<?xml version="1.0" standalone="no"?><!DOCTYPE svg PUBLIC "-//W3C//DTD SVG 1.1//EN" "http://www.w3.org/Graphics/SVG/1.1/DTD/svg11.dtd"><svg class="icon" width="48px" height="48.00px" viewBox="0 0 1024 1024" version="1.1" xmlns="http://www.w3.org/2000/svg"><path fill="#545662" d="M943 434.3c12.8 11.1 14.2 30.6 3 43.4-6.1 7-14.6 10.6-23.2 10.6-7.2 0-14.4-2.5-20.2-7.6L512.6 141.7 122.5 480.8c-5.8 5.1-13 7.6-20.2 7.6-8.6 0-17.2-3.6-23.2-10.6-11.1-12.8-9.8-32.3 3-43.4l66.7-57.9c-0.1-0.8-0.1-1.6-0.1-2.5l0-82.1c0-17 13.8-30.8 30.7-30.8s30.7 13.8 30.7 30.8L210.1 323 492.4 77.7c0 0 0 0 0.1-0.1 0.3-0.3 0.7-0.6 1-0.9 0.1 0 0.1-0.1 0.2-0.1 0.4-0.3 0.7-0.5 1.1-0.8 0.1 0 0.1-0.1 0.2-0.1 0.3-0.2 0.7-0.5 1-0.7 0.1-0.1 0.2-0.1 0.3-0.2 0.3-0.2 0.6-0.4 0.9-0.5 0.2-0.1 0.3-0.2 0.5-0.3 0.2-0.1 0.5-0.2 0.7-0.4 0.2-0.1 0.5-0.2 0.7-0.4 0.1-0.1 0.3-0.1 0.4-0.2 0.3-0.2 0.6-0.3 1-0.4 0.1 0 0.1 0 0.2-0.1 4.6-1.9 9.5-2.7 14.3-2.4 0 0 0.1 0 0.1 0 0.4 0 0.9 0.1 1.3 0.1 0.1 0 0.2 0 0.4 0.1 0.4 0 0.7 0.1 1.1 0.2 0.2 0 0.3 0.1 0.5 0.1 0.3 0.1 0.6 0.1 0.9 0.2 0.2 0 0.4 0.1 0.6 0.1 0.3 0.1 0.6 0.1 0.9 0.2 0.2 0 0.3 0.1 0.5 0.2 0.3 0.1 0.6 0.2 0.9 0.3 0.1 0 0.3 0.1 0.4 0.1 0.3 0.1 0.7 0.2 1 0.4 0.1 0 0.2 0.1 0.3 0.1 0.4 0.1 0.8 0.3 1.1 0.5 0 0 0.1 0 0.1 0.1 0.4 0.2 0.8 0.4 1.3 0.6 0 0 0 0 0 0 2.3 1.1 4.4 2.6 6.4 4.3 0 0 0 0 0 0L805 314.3l0-32.7c0-17 13.8-30.8 30.7-30.8s30.7 13.8 30.7 30.8l0 86.2L943 434.3 943 434.3zM840.8 483.1c-17 0-30.8 13.8-30.8 30.8l0 305.7c0 38.6-26.5 71.1-57.9 71.1l-479 0c-31.4 0-57.9-32.6-57.9-71.1L215.2 513.9c0-17-13.8-30.8-30.8-30.8-17 0-30.8 13.8-30.8 30.8l0 305.7c0 73.1 53.6 132.7 119.5 132.7l479 0c65.9 0 119.5-59.5 119.5-132.7L871.6 513.9C871.6 496.9 857.8 483.1 840.8 483.1L840.8 483.1zM392.5 405.4c-17 0-30.8 13.8-30.8 30.8l0 30c0 17 13.8 30.8 30.8 30.8 17 0 30.8-13.8 30.8-30.8l0-30C423.3 419.2 409.5 405.4 392.5 405.4L392.5 405.4zM632.7 405.4c-17 0-30.8 13.8-30.8 30.8l0 30c0 17 13.8 30.8 30.8 30.8 17 0 30.8-13.8 30.8-30.8l0-30C663.4 419.2 649.7 405.4 632.7 405.4L632.7 405.4zM588.2 544.4c-14.3-9.2-33.3-5-42.5 9.3-0.1 0.2-13.2 19.2-33.5 19.2-19.7 0-32-17.9-32.8-19.1-9-14.2-27.8-18.5-42.2-9.6-14.4 9-18.9 27.9-9.9 42.4 11 17.8 41.4 47.9 84.9 47.9 43.3 0 74-29.9 85.3-47.5C606.7 572.6 602.6 553.5 588.2 544.4L588.2 544.4z" /></svg>